{"title":"The.Only.Way.Is.Essex.S08E11.PDTV.x264-W33D","uid":8341772,"size":314506913,"categoryP":"video","categoryS":"tv_shows","magnet":"?xt=urn:btih:5dd71da5af99dad16298623bf93465969204fdbb&amp;dn=The.Only.Way.Is.Essex.S08E11.PDTV.x264-W33D&amp;tr=udp%3A%2F%2Ftracker.openbittorrent.com%3A80&amp;tr=udp%3A%2F%2Fopen.demonii.com%3A1337&amp;tr=udp%3A%2F%2Ftracker.coppersurfer.tk%3A6969&amp;tr=udp%3A%2F%2Fexodus.desync.com%3A6969","seeders":1,"leechers":0,"uploader":"shane1989","files":1,"time":1365109866,"description":"Season 8 Episode 11 of 12\nReality programme following a group of people in Essex, with each episode filmed just a few days before transmission\nThe Only Way Is Essex is a British BAFTA award-winning reality television show based in Essex, England.\nIt shows &quot;real people in modified situations, saying unscripted lines but in a structured way.&quot;\n\n\n\n\n\nGeneral\nComplete name                            : The.Only.Way.Is.Essex.S08E11.PDTV.x264-W33D.mp4\nFormat                                   : MPEG-4\nFormat profile                           : Base Media\nCodec ID                                 : isom\nFile size                                : 300 MiB\nDuration                                 : 32mn 53s\nOverall bit rate mode                    : Variable\nOverall bit rate                         : 1 275 Kbps\n\n\nVideo\nID                                       : 1\nFormat                                   : AVC\nFormat/Info                              : Advanced Video Codec\nFormat profile                           : &lt;a class=&quot;__cf_email__&quot; href=&quot;/cdn-cgi/l/email-protection&quot; data-cfemail=&quot;327a5b555a727e011c03&quot;&gt;[email&amp;#160;protected]&lt;/a&gt;&lt;script cf-hash='f9e31' type=&quot;text/javascript&quot;&gt;\n/* &lt;![CDATA[ */!function(){try{var t=&quot;currentScript&quot;in document?document.currentScript:function(){for(var t=document.getElementsByTagName(&quot;script&quot;),e=t.length;e--;)if(t[e].getAttribute(&quot;cf-hash&quot;))return t[e]}();if(t&amp;&amp;t.previousSibling){var e,r,n,i,c=t.previousSibling,a=c.getAttribute(&quot;data-cfemail&quot;);if(a){for(e=&quot;&quot;,r=parseInt(a.substr(0,2),16),n=2;a.length-n;n+=2)i=parseInt(a.substr(n,2),16)^r,e+=String.fromCharCode(i);e=document.createTextNode(e),c.parentNode.replaceChild(e,c)}}}catch(u){}}();/* ]]&gt; */&lt;/script&gt;\nFormat settings, CABAC                   : Yes\nFormat settings, ReFrames                : 4 frames\nCodec ID                                 : avc1\nCodec ID/Info                            : Advanced Video Coding\nDuration                                 : 32mn 53s\nBit rate                                 : 1 133 Kbps\nMaximum bit rate                         : 5 205 Kbps\nWidth                                    : 704 pixels\nHeight                                   : 400 pixels\nDisplay aspect ratio                     : 16:9\nFrame rate mode                          : Constant\nFrame rate                               : 25.000 fps\nColor space                              : YUV\nChroma subsampling                       : 4:2:0\nBit depth                                : 8 bits\nScan type                                : Progressive\nBits/(Pixel*Frame)                       : 0.161\nStream size                              : 266 MiB (89%)\nTitle                                    : Only.Way.Is.Essex.S08E11.264#trackID=1:fps=&lt;a class=&quot;__cf_email__&quot; href=&quot;/cdn-cgi/l/email-protection&quot; data-cfemail=&quot;96a4a3d6d1c6d7d5a6b8a3b8a7bbd2d3c0bbe4f3e0a2a4aea5&quot;&gt;[email&amp;#160;protected]&lt;/a&gt;&lt;script cf-hash='f9e31' type=&quot;text/javascript&quot;&gt;\n/* &lt;![CDATA[ */!function(){try{var t=&quot;currentScript&quot;in document?document.currentScript:function(){for(var t=document.getElementsByTagName(&quot;script&quot;),e=t.length;e--;)if(t[e].getAttribute(&quot;cf-hash&quot;))return t[e]}();if(t&amp;&amp;t.previousSibling){var e,r,n,i,c=t.previousSibling,a=c.getAttribute(&quot;data-cfemail&quot;);if(a){for(e=&quot;&quot;,r=parseInt(a.substr(0,2),16),n=2;a.length-n;n+=2)i=parseInt(a.substr(n,2),16)^r,e+=String.fromCharCode(i);e=document.createTextNode(e),c.parentNode.replaceChild(e,c)}}}catch(u){}}();/* ]]&gt; */&lt;/script&gt;\nWriting library                          : x264 core 130 r2273 b3065e6\n\n\nAudio\nID                                       : 2\nFormat                                   : AAC\nFormat/Info                              : Advanced Audio Codec\nFormat profile                           : LC\nCodec ID                                 : 40\nDuration                                 : 32mn 53s\nBit rate mode                            : Variable\nBit rate                                 : 138 Kbps\nMaximum bit rate                         : 161 Kbps\nChannel(s)                               : 2 channels\nChannel positions                        : Front: L R\nSampling rate                            : 48.0 KHz\nCompression mode                         : Lossy\nStream size                              : 32.5 MiB (11%)\n","torrent":{"xt":"urn:btih:5dd71da5af99dad16298623bf93465969204fdbb","amp;dn":"The.Only.Way.Is.Essex.S08E11.PDTV.x264-W33D","amp;tr":["udp%3A%2F%2Ftracker.openbittorrent.com%3A80","udp%3A%2F%2Fopen.demonii.com%3A1337","udp%3A%2F%2Ftracker.coppersurfer.tk%3A6969","udp%3A%2F%2Fexodus.desync.com%3A6969"],"infoHash":"5dd71da5af99dad16298623bf93465969204fdbb","infoHashBuffer":{"type":"Buffer","data":[93,215,29,165,175,153,218,209,98,152,98,59,249,52,101,150,146,4,253,187]},"announce":[],"urlList":[]}}